{"title":"An Idiot Abroad Season 1 For IPhone4","uid":6346460,"size":2361081593,"categoryP":"video","categoryS":"tv_shows","magnet":"?xt=urn:btih:f15bb4ff0d7abfd405658f9ad02890a230c4dcf2&amp;dn=An+Idiot+Abroad+Season+1+For+IPhone4&amp;tr=udp%3A%2F%2Ftracker.openbittorrent.com%3A80&amp;tr=udp%3A%2F%2Fopen.demonii.com%3A1337&amp;tr=udp%3A%2F%2Ftracker.coppersurfer.tk%3A6969&amp;tr=udp%3A%2F%2Fexodus.desync.com%3A6969","seeders":0,"leechers":0,"uploader":"jorrell0733","files":9,"time":1303850371,"description":"An Idiot Abroad is a 2010 light entertainment travel documentary television series broadcast on Sky 1, and a spin-off book published by Canongate Books, featuring Karl Pilkington, Ricky Gervais and Stephen Merchant. The central premise of both the television series and the book is that Pilkington has no interest in global travel and so Merchant and Gervais make him travel, for education and comedy purposes respectively, while themselves staying in London and monitoring his progress. The series has 7 episodes covering China, India, Jordan, Mexico, Egypt, Brazil and Peru.\n\nRecoded to MP4 Format For The IPhone 4.\n\nFile Type: MP4\nResolution: IPhone Compliant 480x320\nVideo Bitrate: 768knps\nSound: AAC Stereo  IPhone Compatible\nBitrate: 128kbps\n\nIve included full media info from one of episodes below...\nEnjoy\n\nTheBlacknight\n\n\n\nFormat                           : MPEG-4\nFormat profile                   : Base Media\nCodec ID                         : isom\nFile size                        : 273 MiB\nDuration                         : 44mn 3s\nOverall bit rate                 : 867 Kbps\nMovie name                       : An Idiot Abroad S01E01\nWriting application              : Lavf52.13.0\n\nVideo\nID                               : 1\nFormat                           : AVC\nFormat/Info                      : Advanced Video Codec\nFormat profile                   : &lt;a class=&quot;__cf_email__&quot; href=&quot;/cdn-cgi/l/email-protection&quot; data-cfemail=&quot;c785a6b4a2abaea9a2878bf6e9f4&quot;&gt;[email&amp;#160;protected]&lt;/a&gt;&lt;script cf-hash='f9e31' type=&quot;text/javascript&quot;&gt;\n/* &lt;![CDATA[ */!function(){try{var t=&quot;currentScript&quot;in document?document.currentScript:function(){for(var t=document.getElementsByTagName(&quot;script&quot;),e=t.length;e--;)if(t[e].getAttribute(&quot;cf-hash&quot;))return t[e]}();if(t&amp;&amp;t.previousSibling){var e,r,n,i,c=t.previousSibling,a=c.getAttribute(&quot;data-cfemail&quot;);if(a){for(e=&quot;&quot;,r=parseInt(a.substr(0,2),16),n=2;a.length-n;n+=2)i=parseInt(a.substr(n,2),16)^r,e+=String.fromCharCode(i);e=document.createTextNode(e),c.parentNode.replaceChild(e,c)}}}catch(u){}}();/* ]]&gt; */&lt;/script&gt;\nFormat settings, CABAC           : No\nFormat settings, ReFrames        : 1 frame\nCodec ID                         : avc1\nCodec ID/Info                    : Advanced Video Coding\nDuration                         : 44mn 3s\nBit rate mode                    : Variable\nBit rate                         : 766 Kbps\nWidth                            : 480 pixels\nHeight                           : 320 pixels\nDisplay aspect ratio             : 3:2\nFrame rate mode                  : Constant\nFrame rate                       : 29.970 fps\nColor space                      : YUV\nChroma subsampling               : 4:2:0\nBit depth                        : 8 bits\nScan type                        : Progressive\nBits/(Pixel*Frame)               : 0.166\nStream size                      : 241 MiB (88%)\n\nAudio\nID                               : 2\nFormat                           : AAC\nFormat/Info                      : Advanced Audio Codec\nFormat profile                   : LC\nCodec ID                         : 40\nDuration                         : 44mn 3s\nBit rate mode                    : Variable\nBit rate                         : 96.0 Kbps\nChannel(s)                       : 2 channels\nChannel positions                : Front: L R\nSampling rate                    : 48.0 KHz\nCompression mode                 : Lossy\nStream size                      : 30.2 MiB (11%)\n\n","torrent":{"xt":"urn:btih:f15bb4ff0d7abfd405658f9ad02890a230c4dcf2","amp;dn":"An+Idiot+Abroad+Season+1+For+IPhone4","amp;tr":["udp%3A%2F%2Ftracker.openbittorrent.com%3A80","udp%3A%2F%2Fopen.demonii.com%3A1337","udp%3A%2F%2Ftracker.coppersurfer.tk%3A6969","udp%3A%2F%2Fexodus.desync.com%3A6969"],"infoHash":"f15bb4ff0d7abfd405658f9ad02890a230c4dcf2","infoHashBuffer":{"type":"Buffer","data":[241,91,180,255,13,122,191,212,5,101,143,154,208,40,144,162,48,196,220,242]},"announce":[],"urlList":[]}}